<?xml version="1.0" encoding="UTF-8"?>
<svg width="733px" height="165px" viewBox="0 0 733 165" version="1.1" xmlns="http://www.w3.org/2000/svg" xmlns:xlink="http://www.w3.org/1999/xlink">
    <title>Logo / UXteam / Light@3x</title>
    <defs>
        <linearGradient x1="76.1492947%" y1="72.5458086%" x2="20.747381%" y2="26.3975248%" id="linearGradient-1">
            <stop stop-color="#FF6D00" offset="0%"></stop>
            <stop stop-color="#FF9400" offset="100%"></stop>
        </linearGradient>
    </defs>
    <g id="Symbols" stroke="none" stroke-width="1" fill="none" fill-rule="evenodd">
        <g id="Combined-Shape">
            <path d="M296.733379,18 C298.764037,18 300.456348,19.5176988 300.706388,21.5702781 L300.726543,21.7772826 L300.733379,22 L300.733379,53.2 L323.533379,53.2 C325.496348,53.2 327.143151,54.6182052 327.476617,56.5668395 L327.506388,56.7702781 L327.526543,56.9772826 L327.533379,57.2 L327.533379,77.2 C327.533379,79.2306584 326.01568,80.9229691 323.9631,81.1730093 L323.756096,81.1931649 L323.533379,81.2 L300.733379,81.2 L300.733379,123 C300.733379,130.759011 304.5097,134.938259 311.461701,135.188097 L311.795147,135.197023 L312.133379,135.2 C314.393008,135.2 317.541735,134.317262 321.517149,132.518771 L321.962261,132.315168 C322.044995,132.276915 322.129012,132.241501 322.214165,132.208988 C324.104439,131.487247 326.219085,132.292961 327.191236,134.112112 L327.287672,134.303894 L327.377854,134.519078 L334.313158,152.68297 C335.085231,154.705065 334.108774,156.974476 332.109653,157.804202 C322.181472,161.924899 314.074208,164 307.733379,164 C300.387762,164 293.871237,162.941137 288.278018,160.822931 L287.682282,160.591927 L287.139445,160.37646 L265.999941,131.058264 L265.938938,130.544147 C265.736308,128.836417 265.609519,127.069739 265.558682,125.236373 L265.539593,124.314097 L265.533379,123.4 L265.533379,81.2 L237,81.2 L256.723958,53.2 L265.533379,53.2 L265.533379,42.781506 C265.533379,42.2285784 265.647985,41.6837625 265.889558,41.1451466 L266.000899,40.9146852 L266.128003,40.6849496 L266.274227,40.462469 L281.06123,19.680963 C281.704044,18.7775585 282.68994,18.1852782 283.845799,18.0326969 L284.079186,18.0080814 L284.320382,18 L296.733379,18 Z M381.733379,49.2 C415.551026,49.2 439.733379,72.3597157 439.733379,107 L439.729036,107.451654 L439.716013,107.952865 L439.694317,108.503831 L439.645528,109.424003 L439.577265,110.457233 L439.489555,111.60419 L439.382422,112.865538 L439.300221,113.770317 C439.125649,115.647857 437.66765,117.134912 435.753669,117.372132 L435.546893,117.392727 L435.317416,117.4 L358.349379,117.399 L358.413317,117.594956 C361.96754,128.285294 371.78642,134.706932 385.575864,134.990218 L386.058498,134.997607 L386.533379,135 C393.348337,135 401.532885,131.968855 411.045722,125.839442 C412.514968,124.892762 414.416635,125.014734 415.803277,126.160784 L415.973856,126.30937 L416.152736,126.490157 L430.036988,141.54537 C430.173725,141.693639 430.299052,141.852038 430.411896,142.019211 C431.647852,143.850224 431.165473,146.33649 429.334455,147.572496 C413.145054,158.500541 398.620598,164 385.733379,164 C348.073725,164 322.333379,140.304447 322.333379,106.6 C322.333379,73.4660392 347.649094,49.2 381.733379,49.2 Z M488.933379,49.2 C523.041419,49.2 541.967202,65.4160156 542.710688,97.0521207 L542.72765,98.0155097 L542.733379,99 L542.733379,158.4 C542.733379,160.430658 541.21568,162.122969 539.1631,162.373009 L538.956096,162.393165 L538.733379,162.4 L513.533379,162.4 C511.50272,162.4 509.810409,160.882301 509.560369,158.829722 L509.540214,158.622717 L509.533379,158.4 L509.533379,153.004 L509.33082,153.221909 C502.79121,160.108732 492.805626,163.768193 479.978471,163.989339 L479.323797,163.99762 L478.733379,164 C453.288607,164 436.533379,149.855187 436.533379,129.4 C436.533379,108.113458 452.233579,95.7070492 482.815822,95.2152227 L483.747111,95.2039689 L484.733379,95.2 L507.466379,95.199 L507.452674,94.9968873 C506.627441,84.0716966 499.466621,78.2533449 485.653968,78.0080897 L485.191082,78.0019793 L484.733379,78 C480.652869,78 475.662193,79.0373615 469.778905,81.1208838 L468.665332,81.5238061 C467.541308,81.9389924 466.385941,82.3909771 465.199348,82.8798182 L464.00235,83.380947 C463.197418,83.723226 462.378624,84.0818942 461.546004,84.4569689 L460.286707,85.0318878 C459.017048,85.6191159 457.716317,86.2432777 456.384629,86.9044313 C454.591933,87.7944658 452.433796,87.2186014 451.279823,85.5362131 L451.160088,85.3517394 L451.047963,85.1495977 L441.724388,67.0019242 C441.685865,66.9269414 441.649721,66.8507595 441.616012,66.7734926 C440.732646,64.7486693 441.657974,62.3911166 443.682804,61.5077263 L445.406004,60.7629288 L447.108074,60.0413173 L448.789026,59.3428975 L450.448872,58.6676752 C466.117194,52.3632695 478.929928,49.2 488.933379,49.2 Z M686.733379,49.2 C714.641804,49.2 732.021752,65.983761 732.712035,96.8698816 L732.727838,97.8101385 L732.733379,98.8 L732.733379,158.4 C732.733379,160.430658 731.21568,162.122969 729.1631,162.373009 L728.956096,162.393165 L728.733379,162.4 L701.533379,162.4 C699.50272,162.4 697.810409,160.882301 697.560369,158.829722 L697.540214,158.622717 L697.533379,158.4 L697.533379,103.6 C697.533379,87.8558107 691.06949,80.2 679.133379,80.2 C665.735829,80.2 657.671985,88.8172326 657.34386,105.334365 L657.336287,105.837302 L657.333379,106.4 L657.333379,158.4 C657.333379,160.430658 655.81568,162.122969 653.7631,162.373009 L653.556096,162.393165 L653.333379,162.4 L626.133379,162.4 C624.10272,162.4 622.410409,160.882301 622.160369,158.829722 L622.140214,158.622717 L622.133379,158.4 L622.133379,103.6 C622.133379,87.6770479 615.909967,80.2 603.733379,80.2 C590.511563,80.2 582.471209,88.8456788 582.143843,105.335218 L582.136287,105.837301 L582.133379,106.4 L582.133379,158.4 C582.133379,160.430658 580.61568,162.122969 578.5631,162.373009 L578.356096,162.393165 L578.133379,162.4 L550.933379,162.4 C548.90272,162.4 547.210409,160.882301 546.960369,158.829722 L546.940214,158.622717 L546.933379,158.4 L546.933379,54.8 C546.933379,52.7693416 548.451077,51.0770309 550.503657,50.8269907 L550.710661,50.8068351 L550.933379,50.8 L576.733379,50.8 C578.764037,50.8 580.456348,52.3176988 580.706388,54.3702781 L580.726543,54.5772826 L580.733379,54.8 L580.733379,60.33 C588.601136,53.3075094 599.193073,49.4679043 611.24752,49.2135193 L611.894686,49.2033235 L612.533379,49.2 C627.271017,49.2 639.602856,54.5919213 647.559501,64.8164792 L647.884019,65.2393857 L648.078379,65.5 L648.417697,65.1210965 C657.344893,55.2611164 670.598801,49.514439 685.494868,49.2125275 L686.134269,49.2029258 L686.733379,49.2 Z M507.533379,117.399 L488.133379,117.4 C487.539271,117.4 486.962478,117.408558 486.402712,117.425624 L485.575797,117.457597 C485.032986,117.483158 484.507056,117.5172 483.997719,117.559674 L483.246123,117.629701 C474.498635,118.533034 470.933379,122.084674 470.933379,128 C470.933379,134.669694 476.691258,139 486.533379,139 C496.377498,139 504.057284,134.524915 507.359927,126.473012 L507.533379,126.032 L507.533379,117.399 Z M381.933379,76.8 C369.699959,76.8 360.763706,83.5565307 357.884135,94.7347181 L357.768379,95.199 L405.889379,95.199 L405.876873,95.1467585 C403.121032,83.9632046 394.267274,76.9604309 382.345679,76.8027212 L381.933379,76.8 Z" fill="#777777" fill-rule="nonzero"></path>
            <path d="M32.4,17.9902344 L32.6018971,17.995257 C34.6087724,18.0953449 36.2405026,19.6803709 36.3931649,21.767517 L36.3931649,21.767517 L36.4,21.9902344 L36.4,97.1902344 C36.4,121.652256 46.2087547,132.790234 65.6,132.790234 C65.8593846,132.790234 66.1170314,132.788282 66.3729407,132.784371 C66.5205779,132.782397 66.6675303,132.779595 66.8140028,132.776165 C85.3156721,132.326184 94.5931501,121.461717 94.7966016,97.9749447 L94.7966016,97.9749447 L94.8,97.1902344 L94.8,21.9902344 C94.8,19.8918874 96.420565,18.1548205 98.5772826,17.9970695 L98.5772826,17.9970695 L98.8,17.9902344 L126.8,17.9902344 C127.216167,17.9902344 127.623621,18.0544863 128.010258,18.1771234 L128.010258,18.1771234 L128.051,18.1912344 L128.274667,18.1264484 C128.434152,18.0851161 128.598968,18.0523888 128.769111,18.0285833 L128.769111,18.0285833 L129.028321,17.999606 L129.289006,17.9902344 L160.133068,17.9902344 C161.959145,17.9902344 163.684232,18.8217686 164.856412,20.2910912 L164.856412,20.2910912 L165.027095,20.5191401 L194.383,61.9082344 L235.595655,2.5770669 C236.598359,1.13352158 238.179713,0.207132083 239.966246,0.0285898016 L239.966246,0.0285898016 L240.235718,0.00744614998 L240.523487,0 L269.541723,0 C270.376426,0 271.190219,0.261124256 271.869085,0.746788494 C273.566753,1.96130739 274.041586,4.27330827 272.930652,6.12345647 L272.930652,6.12345647 L272.794935,6.32736222 L214.662,87.5852344 L263.736988,155.650891 C264.178987,156.263933 264.437256,156.988177 264.48449,157.739067 L264.48449,157.739067 L264.492381,157.990234 C264.492381,160.088581 262.871816,161.825648 260.715098,161.983399 L260.715098,161.983399 L260.492381,161.990234 L229.090368,161.990234 C227.246014,161.990234 225.50579,161.142055 224.334834,159.647886 L224.334834,159.647886 L224.164524,159.416027 L193.215,114.913234 L162.842618,159.374682 C161.792904,160.911312 160.090611,161.872517 158.17844,161.982664 L158.17844,161.982664 L157.888275,161.990234 L126.728351,161.990234 C125.882753,161.990234 125.058907,161.722257 124.375124,161.224786 C122.687195,159.99677 122.23081,157.681056 123.356461,155.839825 L123.356461,155.839825 L123.4938,155.637007 L172.134,88.7792344 L130.798,30.9772344 L130.8,98.3902344 C130.8,139.477989 107.637444,163.433053 67.812538,164.362262 L67.812538,164.362262 L66.6006292,164.383366 L65.4,164.390234 C24.5540368,164.390234 0.482415142,140.817536 0.00710563706,99.6322055 L0.00710563706,99.6322055 L2.84217094e-14,98.3902344 L2.84217094e-14,21.9902344 C2.84217094e-14,19.8918874 1.62056502,18.1548205 3.77728262,17.9970695 L3.77728262,17.9970695 L3.985,17.99 L32.4,17.9902344 Z" fill="url(#linearGradient-1)"></path>
        </g>
    </g>
</svg>